# xmcd
#
# Track frame offsets: 
#        150
#        3384
#        16171
#        19139
#        46590
#        49713
#        58980
#        64134
#        86632
#        96947
#        101228
#        165373
#
# Disc length: 2767 seconds
#
# Revision: 0
# Processed by: cddbd v1.5.2PL0 Copyright (c) Steve Scherf et al.
# Submitted via: ExactAudioCopy v1.0b3
#
DISCID=900acd0c
DTITLE=Kalle Sändare - Boxen e' klar - CD 12 - Dagens dikt
DYEAR=2014
DGENRE=Comedy
TTITLE0=Varför
TTITLE1=Brutit hälsenan
TTITLE2=Språngexperiment
TTITLE3=Ett bokförlag
TTITLE4=Mjuka tass i etern
TTITLE5=City hotell
TTITLE6=Klockan tjugofyra
TTITLE7=Tipstjänst
TTITLE8=I gryningsljus
TTITLE9=Vargaskall
TTITLE10=Hotell Ritz
TTITLE11=Hotell Ritz igen
EXTD=
EXTT0=
EXTT1=
EXTT2=
EXTT3=
EXTT4=
EXTT5=
EXTT6=
EXTT7=
EXTT8=
EXTT9=
EXTT10=
EXTT11=
PLAYORDER=
